<?xml version="1.0" encoding="UTF-8" standalone="no"?>
<!-- Generator: Adobe Illustrator 15.0.1, SVG Export Plug-In . SVG Version: 6.00 Build 0)  -->

<svg
   xmlns:dc="http://purl.org/dc/elements/1.1/"
   xmlns:cc="http://creativecommons.org/ns#"
   xmlns:rdf="http://www.w3.org/1999/02/22-rdf-syntax-ns#"
   xmlns:svg="http://www.w3.org/2000/svg"
   xmlns="http://www.w3.org/2000/svg"
   xmlns:sodipodi="http://sodipodi.sourceforge.net/DTD/sodipodi-0.dtd"
   xmlns:inkscape="http://www.inkscape.org/namespaces/inkscape"
   version="1.1"
   id="svg2"
   sodipodi:version="0.32"
   inkscape:version="0.48.4 r9939"
   sodipodi:docname="google_plus.svg"
   inkscape:output_extension="org.inkscape.output.svg.inkscape"
   x="0px"
   y="0px"
   width="256px"
   height="256px"
   viewBox="0 0 256 256"
   enable-background="new 0 0 256 256"
   xml:space="preserve"><metadata
   id="metadata18"><rdf:RDF><cc:Work
       rdf:about=""><dc:format>image/svg+xml</dc:format><dc:type
         rdf:resource="http://purl.org/dc/dcmitype/StillImage" /><dc:title></dc:title></cc:Work></rdf:RDF></metadata><defs
   id="defs16" />
<sodipodi:namedview
   showgrid="false"
   inkscape:window-maximized="1"
   pagecolor="#ffffff"
   bordercolor="#666666"
   id="base"
   borderopacity="1.0"
   inkscape:cx="21.87443"
   inkscape:pageopacity="0.0"
   inkscape:pageshadow="2"
   inkscape:zoom="1.4"
   inkscape:cy="144.57266"
   inkscape:document-units="px"
   inkscape:current-layer="layer1"
   inkscape:window-width="1366"
   inkscape:window-height="705"
   inkscape:window-x="-8"
   inkscape:window-y="-8">
	</sodipodi:namedview>
<g
   id="layer1"
   transform="translate(-373.642,-318.344)"
   inkscape:label="Layer 1"
   inkscape:groupmode="layer">
	
		
	
		<linearGradient
   id="path1950_1_"
   gradientUnits="userSpaceOnUse"
   x1="-808.8727"
   y1="199.8918"
   x2="-860.5692"
   y2="49.2029"
   gradientTransform="matrix(-0.5915 0 0 -0.5915 -34.5417 412.5453)">
		<stop
   offset="0"
   style="stop-color:#FFFFFF"
   id="stop7" />
		<stop
   offset="1"
   style="stop-color:#FFFFFF;stop-opacity:0"
   id="stop9" />
	</linearGradient>
	
		
<path
   inkscape:connector-curvature="0"
   style="fill:#ffffff;fill-rule:evenodd;stroke:none"
   d="m 459.88932,414.94371 19.33331,0 0,-8.77105 0,-8.5934 0,-1.43594 c 0,-8.26773 0.21465,-21.05051 6.22486,-28.96296 6.33587,-8.37875 15.0403,-14.07068 30.00659,-14.07068 24.37389,0 34.65489,3.47882 34.65489,3.47882 l -4.83334,28.63727 c 0,0 -8.05307,-2.32414 -15.57322,-2.32414 -7.52016,0 -14.24833,2.67943 -14.24833,10.19958 l 0,3.04211 0,10.02934 0,8.77105 30.82079,0 -2.1465,27.96372 -28.67429,0 0,97.16246 -36.23145,0 0,-97.16246 -19.33331,0 0,-27.96372 z"
   id="path2997"
   inkscape:export-xdpi="3.5441787"
   inkscape:export-ydpi="3.5441787" /></g>
<g
   id="layer1_1_"
   transform="translate(-200.55198,-393.96227)"
   inkscape:label="Layer 1"
   inkscape:groupmode="layer">
	
</g>
</svg>