<?xml version="1.0" encoding="UTF-8" standalone="no"?>
<!-- Generator: Adobe Illustrator 15.0.1, SVG Export Plug-In . SVG Version: 6.00 Build 0)  -->

<svg
   xmlns:dc="http://purl.org/dc/elements/1.1/"
   xmlns:cc="http://creativecommons.org/ns#"
   xmlns:rdf="http://www.w3.org/1999/02/22-rdf-syntax-ns#"
   xmlns:svg="http://www.w3.org/2000/svg"
   xmlns="http://www.w3.org/2000/svg"
   xmlns:sodipodi="http://sodipodi.sourceforge.net/DTD/sodipodi-0.dtd"
   xmlns:inkscape="http://www.inkscape.org/namespaces/inkscape"
   version="1.1"
   id="svg2"
   sodipodi:version="0.32"
   inkscape:version="0.48.4 r9939"
   sodipodi:docname="google_plus.svg"
   inkscape:output_extension="org.inkscape.output.svg.inkscape"
   x="0px"
   y="0px"
   width="256px"
   height="256px"
   viewBox="0 0 256 256"
   enable-background="new 0 0 256 256"
   xml:space="preserve"><metadata
   id="metadata18"><rdf:RDF><cc:Work
       rdf:about=""><dc:format>image/svg+xml</dc:format><dc:type
         rdf:resource="http://purl.org/dc/dcmitype/StillImage" /><dc:title></dc:title></cc:Work></rdf:RDF></metadata><defs
   id="defs16" />
<sodipodi:namedview
   showgrid="false"
   inkscape:window-maximized="1"
   pagecolor="#ffffff"
   bordercolor="#666666"
   id="base"
   borderopacity="1.0"
   inkscape:cx="21.87443"
   inkscape:pageopacity="0.0"
   inkscape:pageshadow="2"
   inkscape:zoom="1.4"
   inkscape:cy="144.57266"
   inkscape:document-units="px"
   inkscape:current-layer="layer1"
   inkscape:window-width="1366"
   inkscape:window-height="705"
   inkscape:window-x="-8"
   inkscape:window-y="-8">
	</sodipodi:namedview>
<g
   id="layer1"
   transform="translate(-373.642,-318.344)"
   inkscape:label="Layer 1"
   inkscape:groupmode="layer">
	
		
	
		<linearGradient
   id="path1950_1_"
   gradientUnits="userSpaceOnUse"
   x1="-808.8727"
   y1="199.8918"
   x2="-860.5692"
   y2="49.2029"
   gradientTransform="matrix(-0.5915 0 0 -0.5915 -34.5417 412.5453)">
		<stop
   offset="0"
   style="stop-color:#FFFFFF"
   id="stop7" />
		<stop
   offset="1"
   style="stop-color:#FFFFFF;stop-opacity:0"
   id="stop9" />
	</linearGradient>
	
		
<path
   style="fill:#ffffff"
   inkscape:connector-curvature="0"
   d="m 505.20644,459.71872 -8.73736,-6.785 c -2.66091,-2.20682 -6.3002,-5.12 -6.3002,-10.4528 0,-5.35473 3.63929,-8.75929 6.79816,-11.91158 10.1786,-8.01126 20.34841,-16.53802 20.34841,-34.50631 0,-18.47722 -11.62641,-28.19733 -17.19831,-32.80841 h 15.02439 l 15.77024,-9.90877 H 483.136 c -13.10932,0 -32.00114,3.10184 -45.83218,14.51985 -10.42428,8.99401 -15.50919,21.39478 -15.50919,32.55833 0,18.95105 14.55056,38.16095 40.24492,38.16095 2.42619,0 5.08053,-0.23911 7.75241,-0.48699 -1.19994,2.91976 -2.41303,5.35034 -2.41303,9.47662 0,7.52645 3.86742,12.14192 7.27637,16.51389 -10.91785,0.75023 -31.29917,1.95894 -46.32356,11.19425 -14.30926,8.50922 -18.66368,20.89464 -18.66368,29.63638 0,17.99242 16.9592,34.752 52.1258,34.752 41.70152,0 63.77854,-23.07514 63.77854,-45.91774 0.002,-16.78371 -9.6938,-25.04504 -20.36596,-34.03467 z M 473.4444,431.77585 c -20.86172,0 -30.31202,-26.96888 -30.31202,-43.24147 0,-6.33529 1.19993,-12.87679 5.32621,-17.98583 3.88936,-4.86555 10.66339,-8.02223 16.98772,-8.02223 20.1115,0 30.54236,27.21019 30.54236,44.71123 0,4.37855 -0.48261,12.13753 -6.0589,17.74672 -3.90033,3.89156 -10.42647,6.79158 -16.48537,6.79158 z m 0.23911,97.7123 c -25.94225,0 -42.67111,-12.40955 -42.67111,-29.6649 0,-17.25096 15.51138,-23.0861 20.84856,-25.01871 10.17859,-3.42431 23.27695,-3.90253 25.46184,-3.90253 2.42399,0 3.63709,0 5.56751,0.2435 18.44212,13.12468 26.44679,19.66618 26.44679,32.09108 0,15.04633 -12.37006,26.25156 -35.65359,26.25156 z"
   id="path9" /><polygon
   style="fill:#ffffff"
   points="92.923,64.469 92.923,75.612 98.393,75.612 98.393,64.469 109.506,64.469 109.506,58.938 98.393,58.938 98.393,47.863 92.923,47.863 92.923,58.938 81.866,58.938 81.866,64.469 "
   id="polygon11"
   transform="matrix(2.1936622,0,0,2.1936622,350.59932,302.11506)" /></g>
<g
   id="layer1_1_"
   transform="translate(-200.55198,-393.96227)"
   inkscape:label="Layer 1"
   inkscape:groupmode="layer">
	
</g>
</svg>