<?xml version="1.0" encoding="UTF-8" standalone="no"?>
<!-- Generator: Adobe Illustrator 15.0.1, SVG Export Plug-In . SVG Version: 6.00 Build 0)  -->

<svg
   xmlns:dc="http://purl.org/dc/elements/1.1/"
   xmlns:cc="http://creativecommons.org/ns#"
   xmlns:rdf="http://www.w3.org/1999/02/22-rdf-syntax-ns#"
   xmlns:svg="http://www.w3.org/2000/svg"
   xmlns="http://www.w3.org/2000/svg"
   xmlns:sodipodi="http://sodipodi.sourceforge.net/DTD/sodipodi-0.dtd"
   xmlns:inkscape="http://www.inkscape.org/namespaces/inkscape"
   version="1.1"
   id="svg2"
   sodipodi:version="0.32"
   inkscape:version="0.48.4 r9939"
   sodipodi:docname="vkontakte.svg"
   inkscape:output_extension="org.inkscape.output.svg.inkscape"
   x="0px"
   y="0px"
   width="256px"
   height="256px"
   viewBox="0 0 256 256"
   enable-background="new 0 0 256 256"
   xml:space="preserve"><metadata
   id="metadata18"><rdf:RDF><cc:Work
       rdf:about=""><dc:format>image/svg+xml</dc:format><dc:type
         rdf:resource="http://purl.org/dc/dcmitype/StillImage" /><dc:title></dc:title></cc:Work></rdf:RDF></metadata><defs
   id="defs16" />
<sodipodi:namedview
   showgrid="false"
   inkscape:window-maximized="1"
   pagecolor="#ffffff"
   bordercolor="#666666"
   id="base"
   borderopacity="1.0"
   inkscape:cx="189.3289"
   inkscape:pageopacity="0.0"
   inkscape:pageshadow="2"
   inkscape:zoom="1.4"
   inkscape:cy="106.50463"
   inkscape:document-units="px"
   inkscape:current-layer="layer1"
   inkscape:window-width="1366"
   inkscape:window-height="705"
   inkscape:window-x="-8"
   inkscape:window-y="-8">
	</sodipodi:namedview>
<g
   id="layer1"
   transform="translate(-373.642,-318.344)"
   inkscape:label="Layer 1"
   inkscape:groupmode="layer">
	
		
	
		<linearGradient
   id="path1950_1_"
   gradientUnits="userSpaceOnUse"
   x1="-808.8727"
   y1="199.8918"
   x2="-860.5692"
   y2="49.2029"
   gradientTransform="matrix(-0.5915 0 0 -0.5915 -34.5417 412.5453)">
		<stop
   offset="0"
   style="stop-color:#FFFFFF"
   id="stop7" />
		<stop
   offset="1"
   style="stop-color:#FFFFFF;stop-opacity:0"
   id="stop9" />
	</linearGradient>
	
		
<path
   id="path3001"
   d="m 624.33051,392.79339 q 2.9294,8.15133 -19.10471,37.44524 -3.05676,4.07566 -8.27872,10.826 -9.93445,12.73648 -11.46282,16.68478 -2.1652,5.22197 1.78309,10.31657 2.16521,2.67465 10.31656,10.44389 h 0.12736 l 0.12737,0.12737 0.12736,0.12736 0.25474,0.25473 q 17.95843,16.68479 24.32666,28.14763 0.3821,0.63682 0.82789,1.59205 0.44576,0.95525 0.89153,3.37517 0.44579,2.41993 -0.0636,4.33041 -0.50947,1.91047 -3.18412,3.50253 -2.67466,1.59205 -7.51453,1.59205 l -32.60538,0.50946 q -3.05674,0.63683 -7.13243,-0.63682 -4.07567,-1.27365 -6.62296,-2.80202 l -2.54729,-1.52839 q -3.82095,-2.67466 -8.91554,-8.15133 -5.09459,-5.47669 -8.72449,-9.87078 -3.62989,-4.39409 -7.76926,-7.38716 -4.13935,-2.99307 -7.1961,-1.97416 -0.38209,0.12737 -1.01892,0.44579 -0.63683,0.31841 -2.1652,1.84679 -1.52837,1.52838 -2.73834,3.75726 -1.20997,2.22889 -2.1652,6.62297 -0.95523,4.39408 -0.82787,9.87076 0,1.91048 -0.44577,3.50254 -0.44578,1.59206 -0.95524,2.35624 l -0.50947,0.63684 q -2.29256,2.41992 -6.75033,2.80201 h -14.64694 q -9.04291,0.50946 -18.59527,-2.10152 -9.55236,-2.61098 -16.74847,-6.75033 -7.19611,-4.13935 -13.11856,-8.40608 -5.92246,-4.26671 -8.97923,-7.32348 l -3.18412,-3.05675 q -1.27365,-1.27364 -3.50252,-3.82094 -2.22889,-2.54729 -9.10659,-11.5902 -6.8777,-9.04289 -13.50066,-19.23207 -6.62297,-10.18919 -15.60219,-26.87397 -8.97922,-16.68478 -16.62111,-34.64321 -0.76419,-2.03786 -0.76419,-3.43886 0,-1.40101 0.3821,-2.03783 l 0.50946,-0.7642 q 1.91048,-2.41993 7.2598,-2.41993 l 34.89794,-0.25473 q 1.52839,0.25473 2.9294,0.82788 1.401,0.57313 2.03783,1.08259 l 0.63683,0.3821 q 2.03783,1.40102 3.05676,4.07567 2.54728,6.36824 5.85876,13.18226 3.31149,6.81402 5.22197,10.38022 l 2.03782,3.69359 q 3.69359,7.64188 7.13244,13.24594 3.43885,5.60404 6.17719,8.72448 2.73835,3.12044 5.28564,4.90354 2.5473,1.78311 4.3304,1.78311 1.78312,0 3.43885,-0.63683 0.25472,-0.12736 0.63683,-0.63681 0.38209,-0.50947 1.52837,-2.80203 1.14628,-2.29257 1.71943,-5.98615 0.57313,-3.69358 1.20997,-10.31654 0.63681,-6.62298 0,-15.9206 -0.25474,-5.09459 -1.14628,-9.29763 -0.89157,-4.20304 -1.78312,-5.85878 l -0.76418,-1.52838 q -3.18413,-4.3304 -10.82602,-5.47668 -1.65574,-0.25473 0.63683,-3.05676 2.1652,-2.41993 4.83986,-3.82093 6.75033,-3.3115 30.44019,-3.05677 10.4439,0.12737 17.19423,1.65575 2.54731,0.63681 4.26672,1.71942 1.71942,1.0826 2.61099,3.05675 0.89156,1.97416 1.33734,4.07567 0.44576,2.10153 0.44576,5.79511 0,3.69356 -0.12736,7.00506 -0.12737,3.31148 -0.3184,8.97922 -0.19105,5.66773 -0.19105,10.50758 0,1.40103 -0.12737,5.34932 -0.12736,3.94832 -0.0636,6.11352 0.0636,2.1652 0.44578,5.15827 0.38208,2.99308 1.46468,4.96723 1.0826,1.97415 2.86571,3.12045 1.01891,0.25471 2.1652,0.50944 1.14629,0.25473 3.31148,-1.40101 2.16521,-1.65574 4.83988,-4.39409 2.67465,-2.73834 6.62296,-8.53343 3.94831,-5.7951 8.6608,-13.69171 7.64189,-13.24594 13.62805,-28.65708 0.50945,-1.27364 1.27364,-2.22889 0.76419,-0.95523 1.401,-1.33733 l 0.50946,-0.38209 0.63683,-0.31841 q 0,0 1.65574,-0.38209 1.65574,-0.38211 2.5473,-0.0636 l 36.68104,-0.25472 q 4.96724,-0.63682 8.15135,0.31841 3.18412,0.95524 3.94831,2.10152 z"
   inkscape:connector-curvature="0"
   style="fill:#ffffff" /></g>
<g
   id="layer1_1_"
   transform="translate(-200.55198,-393.96227)"
   inkscape:label="Layer 1"
   inkscape:groupmode="layer">
	
</g>
</svg>